
<svg xmlns="http://www.w3.org/2000/svg" xmlns:xlink="http://www.w3.org/1999/xlink" width="40" height="40" viewBox="0 0 40 40">
  <defs>
    <linearGradient id="linear-gradient" x1="0.5" x2="0.5" y2="1" gradientUnits="objectBoundingBox">
      <stop offset="0" stop-color="#ecf86c"/>
      <stop offset="1" stop-color="#5ba800"/>
    </linearGradient>
  </defs>
  <path d="M-10480,157a19.883,19.883,0,0,1-7.786-1.572,19.926,19.926,0,0,1-6.357-4.286,19.934,19.934,0,0,1-4.286-6.358A19.873,19.873,0,0,1-10500,137a19.868,19.868,0,0,1,1.572-7.784,19.934,19.934,0,0,1,4.286-6.357,19.926,19.926,0,0,1,6.357-4.286A19.883,19.883,0,0,1-10480,117a19.859,19.859,0,0,1,7.783,1.572,19.932,19.932,0,0,1,6.357,4.286,19.9,19.9,0,0,1,4.285,6.357A19.851,19.851,0,0,1-10460,137a19.855,19.855,0,0,1-1.572,7.785,19.9,19.9,0,0,1-4.285,6.358,19.931,19.931,0,0,1-6.357,4.286A19.859,19.859,0,0,1-10480,157Zm0-30.626a10.55,10.55,0,0,0-7.513,3.112,10.549,10.549,0,0,0-3.114,7.513,10.549,10.549,0,0,0,3.114,7.513,10.55,10.55,0,0,0,7.513,3.112,10.551,10.551,0,0,0,7.512-3.112,10.554,10.554,0,0,0,3.111-7.513,10.554,10.554,0,0,0-3.111-7.513A10.551,10.551,0,0,0-10480,126.375Z" transform="translate(10500.001 -117.001)" fill="url(#linear-gradient)"/>
</svg>
